P2
2 2
254
65 66 67 68 