P2
10 10
255
255 255 255 255 255 195 255 255 255 255 255 255 147 255 255 255 255
255 154 255 255 214 255 255 255 255 255 255 255 160 255 255 255 255
255 242 255 255 255 255 255 255 255 255 255 216 255 255 255 255 77 255
255 255 255 255 255 255 255 255 255 79 255 249 255 255 255 108 255 197
255 255 255 255 255 255 255 255 255 255 255 176 191 255 255 255 255
255 123 239 255 255 122 255 255 255 255 255 251 255 